<svg id="组_3214" data-name="组 3214" xmlns="http://www.w3.org/2000/svg" width="107.334" height="44.521" viewBox="0 0 107.334 44.521">
  <g id="组_3212" data-name="组 3212" transform="translate(0 5.956)">
    <path id="路径_207" data-name="路径 207" d="M141.022-84.552c0,.259,0,.516-.017.769-.212,4.714-1.05,10.416-1.664,15.095a52.273,52.273,0,0,1-1.792,8.347c-.872,3.065-2.578,6.049-5.336,7.645a14.351,14.351,0,0,1-7.2,1.533,13.232,13.232,0,0,1-6.083-1.13,4.26,4.26,0,0,1-2.218-2.264c-.551-1.627.426-3.342,1.391-4.763a16.4,16.4,0,0,0,5.5,2.448,5.573,5.573,0,0,0,5.451-1.808,7.988,7.988,0,0,0,1.146-4.164,20.284,20.284,0,0,1-5.116,2.015,6.826,6.826,0,0,1-5.287-.908c-2.387-1.724-2.809-5.1-2.593-8.039.215-2.909.846-5.957,1.361-8.9.274-1.575.529-3.158.674-4.753.121-1.333-.07-2.876.547-4.109.662-1.323,3.2-1.342,4.519-1.262a3.569,3.569,0,0,1,1.631.417c2.059,1.228,1.225,5.041.995,7.023-.389,3.343-1.256,5.984-1.739,9.313-.224,1.546-.088,3.5,1.338,4.14a2.677,2.677,0,0,0,3.029-1,7.815,7.815,0,0,0,1.238-3.174c1.08-4.716,2.167-9.48,2.185-14.318a2.381,2.381,0,0,1,.529-1.861,2.273,2.273,0,0,1,1.191-.41c1.9-.273,4.153-.424,5.416,1.023a4.644,4.644,0,0,1,.912,3.092" transform="translate(-77.417 89.602)" fill="#fff"/>
    <path id="路径_209" data-name="路径 209" d="M106.73-72.469c.04.563.054,1.13.127,1.69a5.091,5.091,0,0,0,.555,1.863,1.946,1.946,0,0,0,2.162,1.1,3.238,3.238,0,0,0,1.746-.916,7.641,7.641,0,0,0,1.672-2.576,16.827,16.827,0,0,0,1.244-5.525,11.087,11.087,0,0,0-.162-2.99,4.759,4.759,0,0,0-.584-1.627,1.92,1.92,0,0,0-2.386-.914,2.91,2.91,0,0,0-1.417.895,7.757,7.757,0,0,0-1.511,2.325,16.348,16.348,0,0,0-1.1,3.608,19.717,19.717,0,0,0-.344,3.063m-8.051.229c.043-.847.049-1.619.127-2.382a22.929,22.929,0,0,1,.8-4.13,18.274,18.274,0,0,1,1.611-3.8,15.283,15.283,0,0,1,1.7-2.419,13,13,0,0,1,3.131-2.678,12.335,12.335,0,0,1,3.861-1.546,12.476,12.476,0,0,1,3.594-.228,8.762,8.762,0,0,1,5,1.9,8.623,8.623,0,0,1,2.15,2.656,12.032,12.032,0,0,1,1.3,4.082c.079.573.133,1.15.176,1.727a15.88,15.88,0,0,1,.072,1.65c-.02.723-.082,1.446-.156,2.165-.065.618-.148,1.236-.267,1.846-.14.723-.3,1.446-.5,2.155a17.736,17.736,0,0,1-1.4,3.514,16.644,16.644,0,0,1-2.052,3.017,12.251,12.251,0,0,1-2.657,2.3,11.157,11.157,0,0,1-4.271,1.651,9.667,9.667,0,0,1-1.685.169c-.229,0-.461.072-.69.063a10.533,10.533,0,0,1-5.016-1.227,9.626,9.626,0,0,1-1.378-.985,9.442,9.442,0,0,1-2.89-5.01,13.607,13.607,0,0,1-.452-2.957c-.018-.536-.071-1.07-.1-1.529" transform="translate(-81.336 89.466)" fill="#fff"/>
    <path id="路径_210" data-name="路径 210" d="M102.813-84.654a74.878,74.878,0,0,1-1.452,13.143c-1,5.387-1.5,10.646-4.048,15.629A10.072,10.072,0,0,1,95.3-53.113a7.357,7.357,0,0,1-3.663,1.892,8.467,8.467,0,0,1-2.381.151,6.619,6.619,0,0,1-3.142-.911,3.458,3.458,0,0,1-1.567-2.258,6.251,6.251,0,0,1,.2-2.792c.133-.577.141-.56.729-.4a5.249,5.249,0,0,0,1.311.285,4.221,4.221,0,0,0,2.631-.549,3.706,3.706,0,0,0,1.239-1.7A20.189,20.189,0,0,0,91.7-62.978q.5-2.4.967-4.809.316-1.619.588-3.246c.145-.869.255-1.746.38-2.619.111-.773.23-1.545.329-2.319.078-.6.128-1.21.2-1.813.078-.7.167-1.407.241-2.113.044-.417.067-.836.1-1.255.049-.534.1-1.066.155-1.6.035-.376.07-.75.1-1.125.037-.521.06-1.042.1-1.563.048-.634.111-1.268.16-1.9.017-.232.02-.466.016-.7a.277.277,0,0,1,.257-.3,1.405,1.405,0,0,1,.3-.02,17.564,17.564,0,0,0,2.33-.246,15.921,15.921,0,0,1,2.248-.211,2.316,2.316,0,0,1,2.212,1.475,5.943,5.943,0,0,1,.432,2.029c.016.217,0,.437,0,.655" transform="translate(-84.455 89.609)" fill="#fff"/>
  </g>
  <g id="组_3213" data-name="组 3213" transform="translate(69.515 0)">
    <rect id="矩形_2006" data-name="矩形 2006" width="37.819" height="13.091" transform="translate(0 12.364)" fill="#fff"/>
    <rect id="矩形_2007" data-name="矩形 2007" width="37.819" height="13.091" transform="translate(12.364 37.819) rotate(-90)" fill="#fff"/>
  </g>
</svg>
